<svg width="512" height="512" xmlns="http://www.w3.org/2000/svg">
 <!-- Generator: Sketch 52.6 (67491) - http://www.bohemiancoding.com/sketch -->

 <title>Untitled</title>
 <desc>Created with Sketch.</desc>
 <g>
  <title>background</title>
  <rect fill="none" id="canvas_background" height="402" width="582" y="-1" x="-1"/>
 </g>
 <g>
  <title>Layer 1</title>
  <g fill-rule="evenodd" fill="none" id="Page-1">
   <rect height="282" width="314" y="164" x="41" fill="#FFDD7B" id="Rectangle"/>
   <g id="delivery">
    <path fill="#FFDD7B" id="Rectangle" d="m359,323l108,0l0,123l-13.246582,0c-16.232086,-28.554047 -33.261566,-42.45932 -51.088379,-41.71582c-17.826813,0.7435 -31.337891,14.648773 -40.533203,41.71582l-3.131836,0l0,-123z"/>
    <circle r="113" cy="151" cx="198" fill="#FFFFFF" id="Oval"/>
    <ellipse ry="15" rx="13" cy="431" cx="25" fill="#ED4F43" id="Oval"/>
    <ellipse ry="15" rx="13" cy="431" cx="486" fill="#ED4F43" id="Oval"/>
    <rect height="76" width="72" y="241.5" x="359.5" fill="#B9EAF9" stroke="#979797" id="Rectangle"/>
    <circle r="47" cy="454" cx="132" fill="#FFFFFF" id="Oval"/>
    <circle r="47" cy="454" cx="405" fill="#FFFFFF" id="Oval"/>
    <path fill="#007CAD" id="Path" d="m272.517822,239.483932l-2.956146,0c-19.662491,15.46608 -44.402252,24.773209 -71.36528,24.773209c-26.963043,0 -51.702805,-9.307129 -71.365295,-24.774979l-2.956154,0l-82.580357,0l0,132.128586l313.805355,0l0,-132.128586l-82.582123,0l0,0.00177z"/>
    <path fill-rule="nonzero" fill="#333333" id="Shape" d="m487.228546,404.644653l-8.258942,0l0,-90.839294l-33.814331,0l-8.258911,-82.580353l-73.537476,0l0,-74.321442l-41.712128,0c0.181458,-2.741226 0.421051,-5.466599 0.421051,-8.258911c0,-33.28054 -13.262177,-63.479866 -34.691681,-85.760254l5.789001,-5.788998l14.80722,14.807209l11.676636,-11.67664l-41.289307,-41.291061l-11.676636,11.67664l14.80719,14.807209l-6.333344,6.333363c-19.134003,-15.22826 -42.834335,-24.840172 -68.698059,-26.55784l0,-8.678211l24.773224,0l0,-16.516069l-66.064285,0l0,16.516069l24.773224,0l0,8.67997c-25.863724,1.71767 -49.564072,11.338392 -68.698051,26.55784l-6.333366,-6.333359l14.80722,-14.807211l-11.676643,-11.67664l-41.294594,41.289301l11.676643,11.67664l14.80722,-14.807209l5.788986,5.788998c-21.429497,22.280388 -34.691681,52.479713 -34.691681,85.760254c0,2.790558 0.239594,5.51593 0.421051,8.258911l-41.712109,0l0,247.741089l-8.257162,0c-13.658569,0 -24.774989,11.114655 -24.774989,24.773224c0,13.658569 11.11466,24.774994 24.773231,24.774994l8.257158,0l16.516071,0l24.773216,0c0,31.867645 25.930687,57.807129 57.805374,57.807129c31.87471,0 57.805374,-25.937714 57.805374,-57.807129l156.90181,0c0,31.867645 25.930664,57.807129 57.805359,57.807129c31.874725,0 57.805389,-25.937714 57.805389,-57.807129l16.516052,0l8.258942,0c13.658569,0 24.773224,-11.114655 24.773224,-24.774994c0,-13.660339 -11.107605,-24.773224 -24.766174,-24.773224zm-65.280334,-156.903564l6.606415,66.06427l-65.19751,0l0,-66.06427l58.591095,0zm-223.751816,-206.450027c59.193588,0 107.353592,48.159988 107.353592,107.355347c0,59.195374 -48.160004,107.353592 -107.353592,107.353592c-59.193604,0 -107.3536,-48.161743 -107.3536,-107.355347c0,-59.193604 48.159996,-107.353592 107.3536,-107.353592zm-165.160725,396.385727l-8.257162,0c-4.550508,0 -8.257149,-3.699585 -8.257149,-8.258911c0,-4.559326 3.70841,-8.258911 8.257149,-8.258911l8.257162,0l0,16.517822zm99.096424,57.805389c-22.766632,0 -41.289299,-18.522675 -41.289299,-41.291077c0,-22.768402 18.522667,-41.289307 41.289299,-41.289307c22.766647,0 41.289307,18.522675 41.289307,41.291077c0,22.768402 -18.520905,41.289307 -41.289307,41.289307zm0,-99.096436c-26.127983,0 -48.242783,17.440948 -55.370674,41.291046l-27.209682,0.00177l0,-33.033905l0,-231.225021l27.267818,0c11.51104,56.468231 61.556053,99.096451 121.376839,99.096451c59.820755,0 109.864029,-42.62822 121.376816,-99.096451l27.267822,0l0,57.807144l0,82.580353l0,16.516083l0,107.355347l-159.338257,0c-7.127884,-23.851868 -29.242691,-41.292816 -55.370682,-41.292816zm272.514328,99.096436c-22.766632,0 -41.289307,-18.522675 -41.289307,-41.291077c0,-22.768402 18.522675,-41.291046 41.289307,-41.291046c22.766632,0 41.289276,18.522644 41.289276,41.291046c0,22.768402 -18.520905,41.291077 -41.289276,41.291077zm57.808868,-57.805389l-2.436432,0c-7.127899,-23.850098 -29.242706,-41.291046 -55.372437,-41.291046c-16.169037,0 -30.78598,6.689209 -41.289307,17.432159l0,-83.49646l83.447113,0l15.649323,0l0,74.323212l0,33.032135l0.00174,0zm24.773254,0l-8.258942,0l0,-16.516052l8.258942,0c4.550507,0 8.257141,3.699585 8.257141,8.258911c0,4.559296 -3.708405,8.257141 -8.257141,8.257141z"/>
    <path fill-rule="nonzero" fill="#333333" id="Shape" d="m132.132095,429.417877c-13.658562,0 -24.773224,11.114655 -24.773224,24.774994c0,13.658569 11.114662,24.774994 24.773224,24.774994c13.658585,0 24.773239,-11.114655 24.773239,-24.774994c0.001755,-13.660339 -11.114655,-24.774994 -24.773239,-24.774994zm0,33.032135c-4.550499,0 -8.257149,-3.699585 -8.257149,-8.258911c0,-4.559326 3.708412,-8.258911 8.257149,-8.258911c4.548752,0 8.257156,3.699585 8.257156,8.258911c0,4.559326 -3.70665,8.258911 -8.257156,8.258911z"/>
    <path fill-rule="nonzero" fill="#333333" id="Shape" d="m404.646423,429.417877c-13.658569,0 -24.773254,11.114655 -24.773254,24.774994c0,13.658569 11.114685,24.774994 24.773254,24.774994c13.658569,0 24.773224,-11.114655 24.773224,-24.774994c0.00174,-13.660339 -11.114655,-24.774994 -24.773224,-24.774994zm0,33.032135c-4.550507,0 -8.258942,-3.699585 -8.258942,-8.258911c0,-4.559326 3.708435,-8.258911 8.258942,-8.258911c4.550507,0 8.257141,3.699585 8.257141,8.258911c0,4.559326 -3.706635,8.258911 -8.257141,8.258911z"/>
    <path fill-rule="nonzero" fill="#333333" id="Shape" d="m173.423157,148.644653c0,13.658569 11.114655,24.774979 24.773239,24.774979c13.658569,0 24.773224,-11.114655 24.773224,-24.774979c0,-13.660339 -11.114655,-24.774994 -24.773224,-24.774994c-1.404099,0 -2.75885,0.190269 -4.104797,0.412239l-47.434158,-55.335442l-12.543411,10.75174l45.353577,52.909561c-3.717224,4.335587 -6.044449,9.893799 -6.044449,16.036896zm33.03215,0c0,4.550507 -3.708405,8.258911 -8.257156,8.258911c-4.550507,0 -8.257156,-3.708405 -8.257156,-8.258911c0,-4.550507 3.708405,-8.258926 8.257156,-8.258926c4.548752,0.00177 8.257156,3.70842 8.257156,8.258926z"/>
    <path fill="#333333" id="Path" d="m190.665054,239.112213l1.354767,-16.457947c-38.209824,-3.155228 -68.144875,-35.658859 -68.144875,-74.007858c0,-18.15094 6.689232,-35.658859 18.83625,-49.317429l-12.33728,-10.975479c-14.838928,16.681671 -23.015045,38.093552 -23.015045,60.291153c0,46.880981 36.590805,86.61821 83.306183,90.46756z"/>
   </g>
  </g>
  <path d="m219.5,130.949997c-2,-1 -5.076889,-1.731445 -9,-3c-5.123947,-1.656853 -12.97438,-5.105408 -21,-7c-8.972916,-2.118217 -15.937958,-3.498291 -22,-4c-5.979553,-0.494881 -10,0 -14,0c-2,0 -5,0 -6,0c-1,0 -1.474274,0.149345 -2,1c-1.175568,1.902115 6.663712,6.127472 15,8c11.74884,2.639069 29,2 49,2c18,0 33,0 44,0c3,0 1.847763,0.234634 0,1c-1.306564,0.541199 -1.693436,1.458801 -3,2c-0.923874,0.38269 -3.076126,-0.38269 -4,0c-1.306564,0.541199 -3,2 -5,2c-2,0 -4,0 -5,0l-1,0" id="svg_1" stroke-width="1.5" stroke="#000" fill="none"/>
  <rect id="svg_2" height="525.000002" width="516.000019" y="-9.050005" x="-2.500018" stroke-width="1.5" stroke="#000" fill="#fff"/>
  <text xml:space="preserve" text-anchor="start" font-family="Helvetica, Arial, sans-serif" font-size="57" id="svg_4" y="123.949997" x="51.5" fill-opacity="null" stroke-opacity="null" stroke-width="0" stroke="#000" fill="#000000">SHARED ON</text>
  <text xml:space="preserve" text-anchor="start" font-family="Helvetica, Arial, sans-serif" font-size="69" id="svg_5" y="264.949997" x="24.5" fill-opacity="null" stroke-opacity="null" stroke-width="3" stroke="#000" fill="#000000">CODELIST.CC</text>
 </g>
</svg>